<svg width="20" height="20" viewBox="0 0 20 20" fill="none" xmlns="http://www.w3.org/2000/svg">
<g id="fluent-mdl2:team-favorite">
<path id="Vector" d="M9.22656 15.2679C9.64974 15.4827 10.0306 15.7464 10.3691 16.0589C10.7077 16.3714 11.0007 16.723 11.248 17.1136C11.4954 17.5042 11.681 17.9209 11.8047 18.3636C11.9284 18.8063 11.9935 19.2685 12 19.7503H10.75C10.75 19.236 10.6523 18.751 10.457 18.2952C10.2617 17.8395 9.99479 17.4424 9.65625 17.1038C9.31771 16.7653 8.91732 16.4951 8.45508 16.2933C7.99284 16.0915 7.50781 15.9938 7 16.0003C6.47917 16.0003 5.99414 16.098 5.54492 16.2933C5.0957 16.4886 4.69857 16.7555 4.35352 17.0941C4.00846 17.4326 3.73828 17.833 3.54297 18.2952C3.34766 18.7575 3.25 19.2425 3.25 19.7503H2C2 19.275 2.0651 18.8161 2.19531 18.3734C2.32552 17.9306 2.51107 17.514 2.75195 17.1234C2.99284 16.7327 3.28255 16.3812 3.62109 16.0687C3.95964 15.7562 4.34375 15.4892 4.77344 15.2679C4.29167 14.9098 3.91732 14.4671 3.65039 13.9398C3.38346 13.4124 3.25 12.8493 3.25 12.2503C3.25 11.736 3.34766 11.251 3.54297 10.7952C3.73828 10.3395 4.00521 9.94236 4.34375 9.60382C4.68229 9.26528 5.07943 8.9951 5.53516 8.79327C5.99089 8.59145 6.47917 8.49379 7 8.50031C7.59896 8.50031 8.16211 8.63377 8.68945 8.9007C9.2168 9.16762 9.65951 9.54197 10.0176 10.0237C10.265 9.53546 10.5807 9.09926 10.9648 8.71515C11.349 8.33103 11.7852 8.01528 12.2734 7.76788C11.7917 7.40981 11.4173 6.9671 11.1504 6.43976C10.8835 5.91241 10.75 5.34926 10.75 4.75031C10.75 4.23598 10.8477 3.75096 11.043 3.29523C11.2383 2.8395 11.5052 2.44236 11.8438 2.10382C12.1823 1.76528 12.5794 1.4951 13.0352 1.29327C13.4909 1.09145 13.9792 0.993795 14.5 1.00031C15.0143 1.00031 15.4993 1.09796 15.9551 1.29327C16.4108 1.48859 16.8079 1.75551 17.1465 2.09406C17.485 2.4326 17.7552 2.83299 17.957 3.29523C18.1589 3.75747 18.2565 4.24249 18.25 4.75031C18.25 5.34926 18.1165 5.91241 17.8496 6.43976C17.5827 6.9671 17.2083 7.40981 16.7266 7.76788C17.1497 7.98273 17.5306 8.2464 17.8691 8.5589C18.2077 8.8714 18.5007 9.22296 18.748 9.61359C18.9954 10.0042 19.181 10.4209 19.3047 10.8636C19.4284 11.3063 19.4935 11.7685 19.5 12.2503H18.25C18.25 11.736 18.1523 11.251 17.957 10.7952C17.7617 10.3395 17.4948 9.94236 17.1562 9.60382C16.8177 9.26528 16.4173 8.9951 15.9551 8.79327C15.4928 8.59145 15.0078 8.49379 14.5 8.50031C13.9792 8.50031 13.4941 8.59796 13.0449 8.79327C12.5957 8.98859 12.1986 9.25551 11.8535 9.59406C11.5085 9.9326 11.2383 10.333 11.043 10.7952C10.8477 11.2575 10.75 11.7425 10.75 12.2503C10.75 12.8493 10.6165 13.4124 10.3496 13.9398C10.0827 14.4671 9.70833 14.9098 9.22656 15.2679ZM12 4.75031C12 5.09536 12.0651 5.41762 12.1953 5.7171C12.3255 6.01658 12.5046 6.28351 12.7324 6.51788C12.9603 6.75226 13.224 6.93129 13.5234 7.05499C13.8229 7.17869 14.1484 7.24379 14.5 7.25031C14.8451 7.25031 15.1673 7.1852 15.4668 7.05499C15.7663 6.92478 16.0332 6.74575 16.2676 6.51788C16.502 6.29002 16.681 6.02635 16.8047 5.72687C16.9284 5.42739 16.9935 5.10187 17 4.75031C17 4.40525 16.9349 4.08299 16.8047 3.78351C16.6745 3.48403 16.4954 3.2171 16.2676 2.98273C16.0397 2.74835 15.776 2.56932 15.4766 2.44562C15.1771 2.32192 14.8516 2.25682 14.5 2.25031C14.1549 2.25031 13.8327 2.31541 13.5332 2.44562C13.2337 2.57583 12.9668 2.75486 12.7324 2.98273C12.498 3.21059 12.319 3.47426 12.1953 3.77374C12.0716 4.07322 12.0065 4.39874 12 4.75031ZM4.5 12.2503C4.5 12.5954 4.5651 12.9176 4.69531 13.2171C4.82552 13.5166 5.00456 13.7835 5.23242 14.0179C5.46029 14.2523 5.72396 14.4313 6.02344 14.555C6.32292 14.6787 6.64844 14.7438 7 14.7503C7.34505 14.7503 7.66732 14.6852 7.9668 14.555C8.26628 14.4248 8.5332 14.2457 8.76758 14.0179C9.00195 13.79 9.18099 13.5263 9.30469 13.2269C9.42839 12.9274 9.49349 12.6019 9.5 12.2503C9.5 11.9053 9.4349 11.583 9.30469 11.2835C9.17448 10.984 8.99544 10.7171 8.76758 10.4827C8.53971 10.2484 8.27604 10.0693 7.97656 9.94562C7.67708 9.82192 7.35156 9.75682 7 9.75031C6.65495 9.75031 6.33268 9.81541 6.0332 9.94562C5.73372 10.0758 5.4668 10.2549 5.23242 10.4827C4.99805 10.7106 4.81901 10.9743 4.69531 11.2737C4.57161 11.5732 4.50651 11.8987 4.5 12.2503Z" fill="#9CB0C6"/>
</g>
</svg>
