<svg width="20" height="20" viewBox="0 0 20 20" fill="none" xmlns="http://www.w3.org/2000/svg">
<g id="material-symbols-light:qr-code">
<path id="Vector" d="M2 9.125V3H8.5625V9.125H2ZM2.9375 8.25H7.625V3.875H2.9375V8.25ZM2 17V10.875H8.5625V17H2ZM2.9375 16.125H7.625V11.75H2.9375V16.125ZM10.4375 9.125V3H17V9.125H10.4375ZM11.375 8.25H16.0625V3.875H11.375V8.25ZM15.3594 17V15.4688H17V17H15.3594ZM10.4375 12.4062V10.875H12.0781V12.4062H10.4375ZM12.0781 13.9375V12.4062H13.7187V13.9375H12.0781ZM10.4375 15.4688V13.9375H12.0781V15.4688H10.4375ZM12.0781 17V15.4688H13.7187V17H12.0781ZM13.7187 15.4688V13.9375H15.3594V15.4688H13.7187ZM13.7187 12.4062V10.875H15.3594V12.4062H13.7187ZM15.3594 13.9375V12.4062H17V13.9375H15.3594Z" fill="black"/>
</g>
</svg>
