<svg width="20" height="20" viewBox="0 0 20 20" fill="none" xmlns="http://www.w3.org/2000/svg">
<g id="octicon:project-24">
<path id="Vector" d="M6.0415 5C5.87574 5 5.71677 5.06585 5.59956 5.18306C5.48235 5.30027 5.4165 5.45924 5.4165 5.625V11.875C5.4165 12.0408 5.48235 12.1997 5.59956 12.3169C5.71677 12.4342 5.87574 12.5 6.0415 12.5C6.20726 12.5 6.36624 12.4342 6.48345 12.3169C6.60066 12.1997 6.6665 12.0408 6.6665 11.875V5.625C6.6665 5.45924 6.60066 5.30027 6.48345 5.18306C6.36624 5.06585 6.20726 5 6.0415 5ZM9.99984 5C9.83408 5 9.67511 5.06585 9.5579 5.18306C9.44069 5.30027 9.37484 5.45924 9.37484 5.625V9.375C9.37484 9.54076 9.44069 9.69973 9.5579 9.81694C9.67511 9.93415 9.83408 10 9.99984 10C10.1656 10 10.3246 9.93415 10.4418 9.81694C10.559 9.69973 10.6248 9.54076 10.6248 9.375V5.625C10.6248 5.45924 10.559 5.30027 10.4418 5.18306C10.3246 5.06585 10.1656 5 9.99984 5ZM13.3332 5.625C13.3332 5.45924 13.399 5.30027 13.5162 5.18306C13.6334 5.06585 13.7924 5 13.9582 5C14.1239 5 14.2829 5.06585 14.4001 5.18306C14.5173 5.30027 14.5832 5.45924 14.5832 5.625V13.5417C14.5832 13.7074 14.5173 13.8664 14.4001 13.9836C14.2829 14.1008 14.1239 14.1667 13.9582 14.1667C13.7924 14.1667 13.6334 14.1008 13.5162 13.9836C13.399 13.8664 13.3332 13.7074 13.3332 13.5417V5.625Z" fill="black"/>
<path id="Vector_2" d="M3.12484 1.66602H16.8748C17.6798 1.66602 18.3332 2.31935 18.3332 3.12435V16.8743C18.3332 17.2611 18.1795 17.6321 17.906 17.9055C17.6325 18.179 17.2616 18.3327 16.8748 18.3327H3.12484C2.73806 18.3327 2.36713 18.179 2.09364 17.9055C1.82015 17.6321 1.6665 17.2611 1.6665 16.8743V3.12435C1.6665 2.31935 2.31984 1.66602 3.12484 1.66602ZM2.9165 3.12435V16.8743C2.9165 16.9893 3.00984 17.0827 3.12484 17.0827H16.8748C16.9301 17.0827 16.9831 17.0607 17.0222 17.0217C17.0612 16.9826 17.0832 16.9296 17.0832 16.8743V3.12435C17.0832 3.0691 17.0612 3.01611 17.0222 2.97704C16.9831 2.93797 16.9301 2.91602 16.8748 2.91602H3.12484C3.06958 2.91602 3.01659 2.93797 2.97752 2.97704C2.93845 3.01611 2.9165 3.0691 2.9165 3.12435Z" fill="black"/>
</g>
</svg>
