<svg width="20" height="20" viewBox="0 0 20 20" fill="none" xmlns="http://www.w3.org/2000/svg">
<g id="radix-icons:dashboard">
<path id="Vector" fill-rule="evenodd" clip-rule="evenodd" d="M3.7335 1.33398H3.66683C3.3615 1.33398 3.09883 1.33398 2.86683 1.38865C2.50768 1.47447 2.1793 1.65805 1.91807 1.91904C1.65684 2.18003 1.47297 2.50824 1.38683 2.86732C1.3335 3.09932 1.3335 3.36065 1.3335 3.66732V7.00065C1.3335 7.30598 1.3335 7.56865 1.38816 7.80065C1.47398 8.1598 1.65756 8.48818 1.91855 8.74941C2.17954 9.01064 2.50776 9.19451 2.86683 9.28065C3.09883 9.33398 3.36016 9.33398 3.66683 9.33398H7.00016C7.3055 9.33398 7.56816 9.33398 7.80016 9.27932C8.15931 9.1935 8.4877 9.00992 8.74892 8.74893C9.01015 8.48794 9.19402 8.15973 9.28016 7.80065C9.3335 7.56865 9.3335 7.30732 9.3335 7.00065V3.66732C9.3335 3.36198 9.3335 3.09932 9.27883 2.86732C9.19301 2.50817 9.00943 2.17978 8.74844 1.91856C8.48745 1.65733 8.15924 1.47346 7.80016 1.38732C7.56816 1.33398 7.30683 1.33398 7.00016 1.33398H3.7335ZM3.1775 2.68598C3.23483 2.67265 3.32416 2.66732 3.7335 2.66732H6.9335C7.34416 2.66732 7.43216 2.67132 7.4895 2.68598C7.60927 2.71463 7.71877 2.77588 7.80585 2.86296C7.89293 2.95005 7.95419 3.05954 7.98283 3.17932C7.99616 3.23532 8.00016 3.32332 8.00016 3.73398V6.93398C8.00016 7.34465 7.99616 7.43265 7.9815 7.48998C7.95285 7.60976 7.8916 7.71926 7.80452 7.80634C7.71743 7.89342 7.60794 7.95468 7.48816 7.98332C7.4335 7.99532 7.3455 8.00065 6.9335 8.00065H3.7335C3.32283 8.00065 3.23483 7.99665 3.1775 7.98198C3.05772 7.95334 2.94822 7.89208 2.86114 7.805C2.77406 7.71792 2.7128 7.60842 2.68416 7.48865C2.67216 7.43398 2.66683 7.34598 2.66683 6.93398V3.73398C2.66683 3.32332 2.67083 3.23532 2.6855 3.17798C2.71414 3.05821 2.7754 2.94871 2.86248 2.86163C2.94956 2.77455 3.05906 2.71329 3.17883 2.68465L3.1775 2.68598ZM13.0668 1.33398H13.0002C12.6948 1.33398 12.4322 1.33398 12.2002 1.38865C11.841 1.47447 11.5126 1.65805 11.2514 1.91904C10.9902 2.18003 10.8063 2.50824 10.7202 2.86732C10.6668 3.09932 10.6668 3.36065 10.6668 3.66732V7.00065C10.6668 7.30598 10.6668 7.56865 10.7215 7.80065C10.8073 8.1598 10.9909 8.48818 11.2519 8.74941C11.5129 9.01064 11.8411 9.19451 12.2002 9.28065C12.4322 9.33398 12.6935 9.33398 13.0002 9.33398H16.3335C16.6388 9.33398 16.9015 9.33398 17.1335 9.27932C17.4926 9.1935 17.821 9.00992 18.0823 8.74893C18.3435 8.48794 18.5274 8.15973 18.6135 7.80065C18.6668 7.56865 18.6668 7.30732 18.6668 7.00065V3.66732C18.6668 3.36198 18.6668 3.09932 18.6122 2.86732C18.5263 2.50817 18.3428 2.17978 18.0818 1.91856C17.8208 1.65733 17.4926 1.47346 17.1335 1.38732C16.9015 1.33398 16.6402 1.33398 16.3335 1.33398H13.0668ZM12.5108 2.68598C12.5682 2.67265 12.6575 2.66732 13.0668 2.66732H16.2668C16.6775 2.66732 16.7655 2.67132 16.8228 2.68598C16.9426 2.71463 17.0521 2.77588 17.1392 2.86296C17.2263 2.95005 17.2875 3.05954 17.3162 3.17932C17.3295 3.23532 17.3335 3.32332 17.3335 3.73398V6.93398C17.3335 7.34465 17.3282 7.43265 17.3148 7.48998C17.2862 7.60976 17.2249 7.71926 17.1378 7.80634C17.0508 7.89342 16.9413 7.95468 16.8215 7.98332C16.7655 7.99665 16.6775 8.00065 16.2668 8.00065H13.0668C12.6562 8.00065 12.5682 7.99665 12.5108 7.98198C12.3911 7.95334 12.2816 7.89208 12.1945 7.805C12.1074 7.71792 12.0461 7.60842 12.0175 7.48865C12.0055 7.43398 12.0002 7.34598 12.0002 6.93398V3.73398C12.0002 3.32332 12.0042 3.23532 12.0188 3.17798C12.0475 3.05821 12.1087 2.94871 12.1958 2.86163C12.2829 2.77455 12.3924 2.71329 12.5122 2.68465L12.5108 2.68598ZM3.66683 10.6673H7.00016C7.3055 10.6673 7.56816 10.6673 7.80016 10.722C8.15931 10.8078 8.4877 10.9914 8.74892 11.2524C9.01015 11.5134 9.19402 11.8416 9.28016 12.2007C9.3335 12.4327 9.3335 12.694 9.3335 13.0007V16.334C9.3335 16.6393 9.3335 16.902 9.27883 17.134C9.19301 17.4931 9.00943 17.8215 8.74844 18.0827C8.48745 18.344 8.15924 18.5278 7.80016 18.614C7.56816 18.6673 7.30683 18.6673 7.00016 18.6673H3.66683C3.3615 18.6673 3.09883 18.6673 2.86683 18.6127C2.50768 18.5268 2.1793 18.3433 1.91807 18.0823C1.65684 17.8213 1.47297 17.4931 1.38683 17.134C1.3335 16.902 1.3335 16.6407 1.3335 16.334V13.0007C1.3335 12.6953 1.3335 12.4327 1.38816 12.2007C1.47398 11.8415 1.65756 11.5131 1.91855 11.2519C2.17954 10.9907 2.50776 10.8068 2.86683 10.7207C3.09883 10.6673 3.36016 10.6673 3.66683 10.6673ZM3.7335 12.0007C3.32283 12.0007 3.23483 12.0047 3.1775 12.0193C3.05772 12.048 2.94822 12.1092 2.86114 12.1963C2.77406 12.2834 2.7128 12.3929 2.68416 12.5127C2.67216 12.5673 2.66683 12.6553 2.66683 13.0673V16.2673C2.66683 16.678 2.67083 16.766 2.6855 16.8233C2.71414 16.9431 2.7754 17.0526 2.86248 17.1397C2.94956 17.2268 3.05906 17.288 3.17883 17.3167C3.23483 17.33 3.32283 17.334 3.7335 17.334H6.9335C7.34416 17.334 7.43216 17.3287 7.4895 17.3153C7.60927 17.2867 7.71877 17.2254 7.80585 17.1383C7.89293 17.0513 7.95419 16.9418 7.98283 16.822C7.99616 16.766 8.00016 16.678 8.00016 16.2673V13.0673C8.00016 12.6567 7.99616 12.5687 7.9815 12.5113C7.95285 12.3915 7.8916 12.282 7.80452 12.195C7.71743 12.1079 7.60794 12.0466 7.48816 12.018C7.4335 12.006 7.3455 12.0007 6.9335 12.0007H3.7335ZM13.0668 10.6673H13.0002C12.6948 10.6673 12.4322 10.6673 12.2002 10.722C11.841 10.8078 11.5126 10.9914 11.2514 11.2524C10.9902 11.5134 10.8063 11.8416 10.7202 12.2007C10.6668 12.4327 10.6668 12.694 10.6668 13.0007V16.334C10.6668 16.6393 10.6668 16.902 10.7215 17.134C10.8073 17.4931 10.9909 17.8215 11.2519 18.0827C11.5129 18.344 11.8411 18.5278 12.2002 18.614C12.4322 18.6687 12.6948 18.6687 13.0002 18.6687H16.3335C16.6388 18.6687 16.9015 18.6687 17.1335 18.614C17.4924 18.5279 17.8205 18.3443 18.0815 18.0833C18.3425 17.8223 18.5261 17.4942 18.6122 17.1353C18.6668 16.9033 18.6668 16.6407 18.6668 16.3353V13.0007C18.6668 12.6953 18.6668 12.4327 18.6122 12.2007C18.5263 11.8415 18.3428 11.5131 18.0818 11.2519C17.8208 10.9907 17.4926 10.8068 17.1335 10.7207C16.9015 10.6673 16.6402 10.6673 16.3335 10.6673H13.0668ZM12.5108 12.0193C12.5682 12.006 12.6575 12.0007 13.0668 12.0007H16.2668C16.6775 12.0007 16.7655 12.0047 16.8228 12.0193C16.9426 12.048 17.0521 12.1092 17.1392 12.1963C17.2263 12.2834 17.2875 12.3929 17.3162 12.5127C17.3295 12.5687 17.3335 12.6567 17.3335 13.0673V16.2673C17.3335 16.678 17.3282 16.766 17.3148 16.8233C17.2862 16.9431 17.2249 17.0526 17.1378 17.1397C17.0508 17.2268 16.9413 17.288 16.8215 17.3167C16.7655 17.33 16.6775 17.334 16.2668 17.334H13.0668C12.6562 17.334 12.5682 17.3287 12.5108 17.3153C12.3911 17.2867 12.2816 17.2254 12.1945 17.1383C12.1074 17.0513 12.0461 16.9418 12.0175 16.822C12.0055 16.7673 12.0002 16.6793 12.0002 16.2673V13.0673C12.0002 12.6567 12.0042 12.5687 12.0188 12.5113C12.0475 12.3915 12.1087 12.282 12.1958 12.195C12.2829 12.1079 12.3924 12.0466 12.5122 12.018L12.5108 12.0193Z" fill="#2E2E2E"/>
</g>
</svg>
