<svg width="20" height="20" viewBox="0 0 20 20" fill="none" xmlns="http://www.w3.org/2000/svg">
<path fill-rule="evenodd" clip-rule="evenodd" d="M3.73301 1.33334H3.66634C3.36101 1.33334 3.09834 1.33334 2.86634 1.38801C2.50719 1.47383 2.17881 1.65741 1.91758 1.9184C1.65636 2.17939 1.47248 2.5076 1.38634 2.86668C1.33301 3.09868 1.33301 3.36001 1.33301 3.66668V7.00001C1.33301 7.30534 1.33301 7.56801 1.38767 7.80001C1.47349 8.15916 1.65707 8.48754 1.91806 8.74877C2.17905 9.01 2.50727 9.19387 2.86634 9.28001C3.09834 9.33334 3.35967 9.33334 3.66634 9.33334H6.99967C7.30501 9.33334 7.56767 9.33334 7.79967 9.27868C8.15883 9.19286 8.48721 9.00928 8.74843 8.74829C9.00966 8.4873 9.19353 8.15908 9.27967 7.80001C9.33301 7.56801 9.33301 7.30668 9.33301 7.00001V3.66668C9.33301 3.36134 9.33301 3.09868 9.27834 2.86668C9.19252 2.50753 9.00895 2.17914 8.74796 1.91792C8.48696 1.65669 8.15875 1.47282 7.79967 1.38668C7.56767 1.33334 7.30634 1.33334 6.99967 1.33334H3.73301ZM3.17701 2.68534C3.23434 2.67201 3.32367 2.66668 3.73301 2.66668H6.93301C7.34367 2.66668 7.43167 2.67068 7.48901 2.68534C7.60878 2.71399 7.71828 2.77524 7.80536 2.86232C7.89244 2.9494 7.9537 3.0589 7.98234 3.17868C7.99567 3.23468 7.99967 3.32268 7.99967 3.73334V6.93334C7.99967 7.34401 7.99567 7.43201 7.98101 7.48934C7.95237 7.60912 7.89111 7.71862 7.80403 7.8057C7.71695 7.89278 7.60745 7.95404 7.48767 7.98268C7.43301 7.99468 7.34501 8.00001 6.93301 8.00001H3.73301C3.32234 8.00001 3.23434 7.99601 3.17701 7.98134C3.05723 7.9527 2.94774 7.89144 2.86066 7.80436C2.77357 7.71728 2.71232 7.60778 2.68367 7.48801C2.67167 7.43334 2.66634 7.34534 2.66634 6.93334V3.73334C2.66634 3.32268 2.67034 3.23468 2.68501 3.17734C2.71365 3.05757 2.77491 2.94807 2.86199 2.86099C2.94907 2.77391 3.05857 2.71265 3.17834 2.68401L3.17701 2.68534ZM13.0663 1.33334H12.9997C12.6943 1.33334 12.4317 1.33334 12.1997 1.38801C11.8405 1.47383 11.5121 1.65741 11.2509 1.9184C10.9897 2.17939 10.8058 2.5076 10.7197 2.86668C10.6663 3.09868 10.6663 3.36001 10.6663 3.66668V7.00001C10.6663 7.30534 10.6663 7.56801 10.721 7.80001C10.8068 8.15916 10.9904 8.48754 11.2514 8.74877C11.5124 9.01 11.8406 9.19387 12.1997 9.28001C12.4317 9.33334 12.693 9.33334 12.9997 9.33334H16.333C16.6383 9.33334 16.901 9.33334 17.133 9.27868C17.4922 9.19286 17.8205 9.00928 18.0818 8.74829C18.343 8.4873 18.5269 8.15908 18.613 7.80001C18.6663 7.56801 18.6663 7.30668 18.6663 7.00001V3.66668C18.6663 3.36134 18.6663 3.09868 18.6117 2.86668C18.5259 2.50753 18.3423 2.17914 18.0813 1.91792C17.8203 1.65669 17.4921 1.47282 17.133 1.38668C16.901 1.33334 16.6397 1.33334 16.333 1.33334H13.0663ZM12.5103 2.68534C12.5677 2.67201 12.657 2.66668 13.0663 2.66668H16.2663C16.677 2.66668 16.765 2.67068 16.8223 2.68534C16.9421 2.71399 17.0516 2.77524 17.1387 2.86232C17.2258 2.9494 17.287 3.0589 17.3157 3.17868C17.329 3.23468 17.333 3.32268 17.333 3.73334V6.93334C17.333 7.34401 17.3277 7.43201 17.3143 7.48934C17.2857 7.60912 17.2244 7.71862 17.1374 7.8057C17.0503 7.89278 16.9408 7.95404 16.821 7.98268C16.765 7.99601 16.677 8.00001 16.2663 8.00001H13.0663C12.6557 8.00001 12.5677 7.99601 12.5103 7.98134C12.3906 7.9527 12.2811 7.89144 12.194 7.80436C12.1069 7.71728 12.0456 7.60778 12.017 7.48801C12.005 7.43334 11.9997 7.34534 11.9997 6.93334V3.73334C11.9997 3.32268 12.0037 3.23468 12.0183 3.17734C12.047 3.05757 12.1082 2.94807 12.1953 2.86099C12.2824 2.77391 12.3919 2.71265 12.5117 2.68401L12.5103 2.68534ZM3.66634 10.6667H6.99967C7.30501 10.6667 7.56767 10.6667 7.79967 10.7213C8.15883 10.8072 8.48721 10.9907 8.74843 11.2517C9.00966 11.5127 9.19353 11.8409 9.27967 12.2C9.33301 12.432 9.33301 12.6933 9.33301 13V16.3333C9.33301 16.6387 9.33301 16.9013 9.27834 17.1333C9.19252 17.4925 9.00895 17.8209 8.74796 18.0821C8.48696 18.3433 8.15875 18.5272 7.79967 18.6133C7.56767 18.6667 7.30634 18.6667 6.99967 18.6667H3.66634C3.36101 18.6667 3.09834 18.6667 2.86634 18.612C2.50719 18.5262 2.17881 18.3426 1.91758 18.0816C1.65636 17.8206 1.47248 17.4924 1.38634 17.1333C1.33301 16.9013 1.33301 16.64 1.33301 16.3333V13C1.33301 12.6947 1.33301 12.432 1.38767 12.2C1.47349 11.8409 1.65707 11.5125 1.91806 11.2513C2.17905 10.99 2.50727 10.8062 2.86634 10.72C3.09834 10.6667 3.35967 10.6667 3.66634 10.6667ZM3.73301 12C3.32234 12 3.23434 12.004 3.17701 12.0187C3.05723 12.0473 2.94774 12.1086 2.86066 12.1957C2.77357 12.2827 2.71232 12.3922 2.68367 12.512C2.67167 12.5667 2.66634 12.6547 2.66634 13.0667V16.2667C2.66634 16.6773 2.67034 16.7653 2.68501 16.8227C2.71365 16.9425 2.77491 17.0519 2.86199 17.139C2.94907 17.2261 3.05857 17.2874 3.17834 17.316C3.23434 17.3293 3.32234 17.3333 3.73301 17.3333H6.93301C7.34367 17.3333 7.43167 17.328 7.48901 17.3147C7.60878 17.286 7.71828 17.2248 7.80536 17.1377C7.89244 17.0506 7.9537 16.9411 7.98234 16.8213C7.99567 16.7653 7.99967 16.6773 7.99967 16.2667V13.0667C7.99967 12.656 7.99567 12.568 7.98101 12.5107C7.95237 12.3909 7.89111 12.2814 7.80403 12.1943C7.71695 12.1072 7.60745 12.046 7.48767 12.0173C7.43301 12.0053 7.34501 12 6.93301 12H3.73301ZM13.0663 10.6667H12.9997C12.6943 10.6667 12.4317 10.6667 12.1997 10.7213C11.8405 10.8072 11.5121 10.9907 11.2509 11.2517C10.9897 11.5127 10.8058 11.8409 10.7197 12.2C10.6663 12.432 10.6663 12.6933 10.6663 13V16.3333C10.6663 16.6387 10.6663 16.9013 10.721 17.1333C10.8068 17.4925 10.9904 17.8209 11.2514 18.0821C11.5124 18.3433 11.8406 18.5272 12.1997 18.6133C12.4317 18.668 12.6943 18.668 12.9997 18.668H16.333C16.6383 18.668 16.901 18.668 17.133 18.6133C17.4919 18.5273 17.82 18.3436 18.081 18.0827C18.342 17.8217 18.5256 17.4936 18.6117 17.1347C18.6663 16.9027 18.6663 16.64 18.6663 16.3347V13C18.6663 12.6947 18.6663 12.432 18.6117 12.2C18.5259 11.8409 18.3423 11.5125 18.0813 11.2513C17.8203 10.99 17.4921 10.8062 17.133 10.72C16.901 10.6667 16.6397 10.6667 16.333 10.6667H13.0663ZM12.5103 12.0187C12.5677 12.0053 12.657 12 13.0663 12H16.2663C16.677 12 16.765 12.004 16.8223 12.0187C16.9421 12.0473 17.0516 12.1086 17.1387 12.1957C17.2258 12.2827 17.287 12.3922 17.3157 12.512C17.329 12.568 17.333 12.656 17.333 13.0667V16.2667C17.333 16.6773 17.3277 16.7653 17.3143 16.8227C17.2857 16.9425 17.2244 17.0519 17.1374 17.139C17.0503 17.2261 16.9408 17.2874 16.821 17.316C16.765 17.3293 16.677 17.3333 16.2663 17.3333H13.0663C12.6557 17.3333 12.5677 17.328 12.5103 17.3147C12.3906 17.286 12.2811 17.2248 12.194 17.1377C12.1069 17.0506 12.0456 16.9411 12.017 16.8213C12.005 16.7667 11.9997 16.6787 11.9997 16.2667V13.0667C11.9997 12.656 12.0037 12.568 12.0183 12.5107C12.047 12.3909 12.1082 12.2814 12.1953 12.1943C12.2824 12.1072 12.3919 12.046 12.5117 12.0173L12.5103 12.0187Z" fill="#9C9C9C"/>
</svg>
