<svg width="11" height="13" viewBox="0 0 11 13" fill="none" xmlns="http://www.w3.org/2000/svg">
<path id="Vector" d="M4.18284 0C3.90916 0 3.62935 0.0959931 3.43124 0.294106C3.23313 0.492219 3.13713 0.772029 3.13713 1.04571V1.56857H0V2.61428H0.522855V10.98C0.522855 11.8398 1.23157 12.5485 2.09142 12.5485H8.36569C9.22554 12.5485 9.93425 11.8398 9.93425 10.98V2.61428H10.4571V1.56857H7.31998V1.04571C7.31998 0.772029 7.22398 0.492219 7.02587 0.294106C6.82776 0.0959931 6.54795 0 6.27426 0H4.18284ZM4.18284 1.04571H6.27426V1.56857H4.18284V1.04571ZM1.56857 2.61428H8.88854V10.98C8.88854 11.27 8.65571 11.5028 8.36569 11.5028H2.09142C1.8014 11.5028 1.56857 11.27 1.56857 10.98V2.61428ZM2.61428 4.18284V9.93425H3.65999V4.18284H2.61428ZM4.7057 4.18284V9.93425H5.75141V4.18284H4.7057ZM6.79712 4.18284V9.93425H7.84283V4.18284H6.79712Z" fill="#444444"/>
</svg>
