<svg width="44" height="44" viewBox="0 0 44 44" fill="none" xmlns="http://www.w3.org/2000/svg">
<g id="carbon:scan-disabled">
<path id="Vector" d="M40.0676 3.20259C39.8209 3.10039 39.5494 3.07368 39.2874 3.12582C39.0255 3.17797 38.7849 3.30664 38.5961 3.49554L3.49614 38.5955C3.30739 38.7843 3.17886 39.0249 3.1268 39.2867C3.07473 39.5485 3.10147 39.8199 3.20362 40.0666C3.30578 40.3132 3.47876 40.524 3.70072 40.6724C3.92267 40.8207 4.18362 40.8999 4.45059 40.9H15.2506V38.2H7.70949L13.1095 32.8H30.1006C30.8165 32.7993 31.5028 32.5146 32.009 32.0084C32.5152 31.5022 32.7999 30.8159 32.8006 30.1V13.1102L38.2006 7.71025V15.25H40.9006V4.44999C40.9007 4.18301 40.8216 3.922 40.6733 3.69997C40.525 3.47794 40.3143 3.30485 40.0676 3.20259ZM30.1006 30.1H15.8095L30.1006 15.8102V30.1ZM13.9006 24.3692V13.9H24.3698L27.0698 11.2H13.9006C13.1847 11.2007 12.4984 11.4854 11.9922 11.9916C11.486 12.4978 11.2013 13.1841 11.2006 13.9V27.0692L13.9006 24.3692ZM15.2506 3.09999H3.10059V15.25H5.80059V5.79999H15.2506V3.09999ZM28.7506 40.9H40.9006V28.75H38.2006V38.2H28.7506V40.9ZM5.80059 32.4692V28.75H3.10059V35.1679L5.80059 32.4692ZM35.1698 3.09999H28.7506V5.79999H32.4698L35.1698 3.09999Z" fill="#DE0000"/>
</g>
</svg>
