<svg width="20" height="20" viewBox="0 0 20 20" fill="none" xmlns="http://www.w3.org/2000/svg">
<g id="typcn:flash">
<path id="Vector" d="M14.5849 10.0275L11.0507 7.97917L12.8324 3.70334C12.8946 3.57634 12.9235 3.43565 12.9165 3.29442C12.9095 3.1532 12.8668 3.01606 12.7924 2.89584C12.7179 2.77562 12.6142 2.67624 12.4909 2.60701C12.3676 2.53778 12.2288 2.50097 12.0874 2.5C11.8995 2.49956 11.7169 2.56237 11.5691 2.67834L11.5107 2.72834L5.26073 8.645C5.16677 8.73423 5.09487 8.8441 5.05072 8.96591C5.00656 9.08773 4.99136 9.21815 5.00631 9.34686C5.02127 9.47556 5.06597 9.59902 5.13689 9.70747C5.2078 9.81591 5.30298 9.90636 5.4149 9.97167L8.9499 12.0217L7.1474 16.3467C7.07305 16.5231 7.06178 16.7197 7.11548 16.9035C7.16918 17.0872 7.28457 17.2469 7.44221 17.3555C7.59986 17.4641 7.79012 17.5151 7.98096 17.4998C8.17179 17.4845 8.35153 17.404 8.4899 17.2717L14.7399 11.3533C14.8336 11.264 14.9054 11.1542 14.9493 11.0324C14.9933 10.9106 15.0084 10.7803 14.9934 10.6517C14.9784 10.5231 14.9336 10.3998 14.8627 10.2915C14.7918 10.1831 14.6967 10.0928 14.5849 10.0275Z" fill="#004AFF"/>
</g>
</svg>
