<svg width="24" height="24" viewBox="0 0 24 24" fill="none" xmlns="http://www.w3.org/2000/svg">
<g id="ion:notifications-outline">
<path id="Vector" d="M15.2576 17.75V18.5C15.2576 19.2956 14.9415 20.0587 14.3789 20.6213C13.8163 21.1839 13.0532 21.5 12.2576 21.5C11.4619 21.5 10.6988 21.1839 10.1362 20.6213C9.57363 20.0587 9.25756 19.2956 9.25756 18.5V17.75M20.3051 16.2233C19.1013 14.75 18.2515 14 18.2515 9.93828C18.2515 6.21875 16.3521 4.89359 14.7888 4.25C14.5811 4.16469 14.3857 3.96875 14.3224 3.75547C14.0482 2.82219 13.2794 2 12.2576 2C11.2357 2 10.4665 2.82266 10.1951 3.75641C10.1318 3.97203 9.93631 4.16469 9.72865 4.25C8.16349 4.89453 6.26599 6.215 6.26599 9.93828C6.26365 14 5.41381 14.75 4.21006 16.2233C3.71131 16.8336 4.14818 17.75 5.02052 17.75H19.4993C20.3669 17.75 20.801 16.8308 20.3051 16.2233Z" stroke="#012954" stroke-linecap="round" stroke-linejoin="round"/>
</g>
</svg>
