<svg width="20" height="20" viewBox="0 0 20 20" fill="none" xmlns="http://www.w3.org/2000/svg">
<g id="bx:spreadsheet">
<path id="Vector" d="M17.5 4.16667C17.5 3.2475 16.7525 2.5 15.8333 2.5H4.16667C3.2475 2.5 2.5 3.2475 2.5 4.16667V15.8333C2.5 16.7525 3.2475 17.5 4.16667 17.5H15.8333C16.7525 17.5 17.5 16.7525 17.5 15.8333V4.16667ZM4.16667 15.8333V4.16667H15.8333L15.835 15.8333H4.16667Z" fill="black"/>
<path id="Vector_2" d="M5.8335 5.83398H7.4985V7.50065H5.8335V5.83398ZM9.16683 5.83398H14.1668V7.50065H9.16683V5.83398ZM5.8335 9.16732H7.4985V10.834H5.8335V9.16732ZM9.16683 9.16732H14.1668V10.834H9.16683V9.16732ZM5.8335 12.5007H7.4985V14.1673H5.8335V12.5007ZM9.16683 12.5007H14.1668V14.1673H9.16683V12.5007Z" fill="black"/>
</g>
</svg>
