<svg width="20" height="20" viewBox="0 0 20 20" fill="none" xmlns="http://www.w3.org/2000/svg">
<g id="bx:spreadsheet">
<path id="Vector" d="M17.5 4.16667C17.5 3.2475 16.7525 2.5 15.8333 2.5H4.16667C3.2475 2.5 2.5 3.2475 2.5 4.16667V15.8333C2.5 16.7525 3.2475 17.5 4.16667 17.5H15.8333C16.7525 17.5 17.5 16.7525 17.5 15.8333V4.16667ZM4.16667 15.8333V4.16667H15.8333L15.835 15.8333H4.16667Z" fill="#9C9C9C"/>
<path id="Vector_2" d="M5.83301 5.83334H7.49801V7.50001H5.83301V5.83334ZM9.16634 5.83334H14.1663V7.50001H9.16634V5.83334ZM5.83301 9.16668H7.49801V10.8333H5.83301V9.16668ZM9.16634 9.16668H14.1663V10.8333H9.16634V9.16668ZM5.83301 12.5H7.49801V14.1667H5.83301V12.5ZM9.16634 12.5H14.1663V14.1667H9.16634V12.5Z" fill="#9C9C9C"/>
</g>
</svg>
