<svg width="24" height="24" viewBox="0 0 24 24" fill="none" xmlns="http://www.w3.org/2000/svg">
<g id="iconamoon:profile-circle-light">
<g id="Group">
<path id="Vector" d="M21 11.9979C21.003 13.7847 20.4715 15.5315 19.474 17.0139C18.6514 18.2409 17.5391 19.2462 16.2355 19.9411C14.9319 20.636 13.4772 20.9989 12 20.9979C10.5228 20.9989 9.06808 20.636 7.76451 19.9411C6.46093 19.2462 5.34865 18.2409 4.526 17.0139C3.74273 15.8463 3.2439 14.5115 3.06951 13.1164C2.89511 11.7212 3.05 10.3047 3.52175 8.9802C3.9935 7.65573 4.769 6.46021 5.78607 5.48947C6.80314 4.51873 8.0335 3.79978 9.37851 3.39025C10.7235 2.98072 12.1458 2.89201 13.5312 3.13122C14.9167 3.37043 16.2269 3.93091 17.3567 4.76773C18.4865 5.60455 19.4046 6.69444 20.0373 7.95002C20.67 9.20559 20.9997 10.5919 21 11.9979Z" stroke="#012954"/>
<path id="Vector_2" d="M13.1408 9.48192C13.1408 10.1051 12.6297 10.6109 12 10.6109V11.9658C12.6656 11.9658 13.304 11.7041 13.7747 11.2383C14.2454 10.7725 14.5098 10.1407 14.5098 9.48192H13.1408ZM12 10.6109C11.3703 10.6109 10.8592 10.1051 10.8592 9.48192H9.49022C9.49022 10.1407 9.75464 10.7725 10.2253 11.2383C10.696 11.7041 11.3344 11.9658 12 11.9658V10.6109ZM10.8592 9.48192C10.8592 8.85869 11.3703 8.35289 12 8.35289V6.99805C11.3344 6.99805 10.696 7.25974 10.2253 7.72556C9.75464 8.19137 9.49022 8.82315 9.49022 9.48192H10.8592ZM12 8.35289C12.6297 8.35289 13.1408 8.85869 13.1408 9.48192H14.5098C14.5098 8.82315 14.2454 8.19137 13.7747 7.72556C13.304 7.25974 12.6656 6.99805 12 6.99805V8.35289ZM5.76297 17.4809L5.10678 17.2876L5 17.6417L5.24368 17.9217L5.76297 17.4809ZM18.237 17.4809L18.7572 17.9226L19 17.6426L18.8932 17.2876L18.237 17.4809ZM9.26206 15.5787H14.7379V14.2239H9.26206V15.5787ZM9.26206 14.2239C8.32851 14.2239 7.4199 14.5221 6.67127 15.074C5.92264 15.626 5.37396 16.4023 5.10678 17.2876L6.41917 17.6742C6.60218 17.0687 6.97764 16.5378 7.4898 16.1603C8.00195 15.7828 8.62347 15.5788 9.26206 15.5787V14.2239ZM12 19.6432C10.9134 19.6444 9.8395 19.4123 8.85236 18.9629C7.86521 18.5135 6.98835 17.8575 6.28227 17.0401L5.24368 17.9217C6.07826 18.8872 7.11446 19.663 8.28086 20.194C9.44727 20.7249 10.7161 20.9993 12 20.998V19.6432ZM14.7379 15.5787C16.0795 15.5787 17.2158 16.462 17.5808 17.6742L18.8932 17.2876C18.626 16.4023 18.0774 15.626 17.3287 15.074C16.5801 14.5221 15.6715 14.2239 14.7379 14.2239V15.5787ZM17.7177 17.0401C17.0117 17.8575 16.1348 18.5135 15.1476 18.9629C14.1605 19.4123 13.0866 19.6444 12 19.6432V20.998C13.2839 20.9993 14.5527 20.7249 15.7191 20.194C16.8855 19.663 17.9227 18.8881 18.7572 17.9226L17.7177 17.0401Z" fill="#012954"/>
</g>
</g>
</svg>
