<svg width="44" height="44" viewBox="0 0 44 44" fill="none" xmlns="http://www.w3.org/2000/svg">
<g id="material-symbols-light:qr-code-scanner-rounded" clip-path="url(#clip0_140_464)">
<path id="Vector" d="M1.96373 10.3038C1.62901 10.3038 1.34851 10.1915 1.12223 9.96678C0.897513 9.73892 0.785156 9.45842 0.785156 9.12528V2.69028C0.785156 2.14971 0.967442 1.69713 1.33201 1.33256C1.69659 0.967992 2.14916 0.785706 2.68973 0.785706H9.12473C9.45944 0.785706 9.73994 0.898849 9.96623 1.12513C10.1909 1.35142 10.3033 1.63192 10.3033 1.96663C10.3033 2.29978 10.1909 2.57949 9.96623 2.80578C9.73837 3.03049 9.45787 3.14285 9.12473 3.14285H3.1423V9.12528C3.1423 9.45999 3.02916 9.74049 2.80287 9.96678C2.57658 10.1931 2.29844 10.3054 1.96373 10.3038ZM2.68737 43.2143C2.1468 43.2143 1.69423 43.032 1.32966 42.6674C0.966656 42.3028 0.785156 41.8503 0.785156 41.3097V34.8747C0.785156 34.54 0.898299 34.2595 1.12458 34.0332C1.35087 33.8085 1.63137 33.6961 1.96608 33.6961C2.29923 33.6961 2.57894 33.8085 2.80523 34.0332C3.02994 34.2595 3.1423 34.54 3.1423 34.8747V40.8571H9.12473C9.45944 40.8571 9.73994 40.9703 9.96623 41.1966C10.1925 41.4228 10.3049 41.7034 10.3033 42.0381C10.3033 42.3712 10.1909 42.6509 9.96623 42.8772C9.73837 43.1019 9.45787 43.2143 9.12473 43.2143H2.68973H2.68737ZM34.8718 43.2143C34.5371 43.2143 34.2566 43.1011 34.0303 42.8749C33.8056 42.6486 33.6932 42.3681 33.6932 42.0334C33.6932 41.7002 33.8056 41.4205 34.0303 41.1942C34.2566 40.9695 34.5371 40.8571 34.8718 40.8571H40.8566V34.8747C40.8566 34.54 40.9697 34.2595 41.196 34.0332C41.4223 33.8069 41.7028 33.6946 42.0375 33.6961C42.3707 33.6961 42.6504 33.8085 42.8767 34.0332C43.1014 34.2595 43.2137 34.54 43.2137 34.8747V41.3097C43.2137 41.8503 43.0314 42.3028 42.6669 42.6674C42.3023 43.032 41.8497 43.2143 41.3092 43.2143H34.8718ZM42.0304 10.3038C41.6973 10.3038 41.4176 10.1915 41.1913 9.96678C40.9682 9.73892 40.8566 9.45842 40.8566 9.12528V3.14285H34.8742C34.5394 3.14285 34.2589 3.02971 34.0327 2.80342C33.8064 2.57713 33.694 2.29663 33.6956 1.96192C33.6956 1.62878 33.8079 1.34906 34.0327 1.12278C34.2605 0.898062 34.541 0.785706 34.8742 0.785706H41.3092C41.8497 0.785706 42.3023 0.967992 42.6669 1.33256C43.0314 1.69713 43.2137 2.14971 43.2137 2.69028V9.12528C43.2137 9.45999 43.1006 9.74049 42.8743 9.96678C42.648 10.1915 42.3675 10.3038 42.0328 10.3038H42.0304ZM33.6461 36.5058V33.649H36.5029V36.5058H33.6461ZM33.6461 30.7945V27.9376H36.5029V30.7945H33.6461ZM30.7916 33.649V30.7945H33.6461V33.649H30.7916ZM27.9347 36.5058V33.649H30.7916V36.5058H27.9347ZM25.0802 33.649V30.7945H27.9347V33.649H25.0802ZM30.7916 27.9376V25.0831H33.6461V27.9376H30.7916ZM27.9347 30.7945V27.9376H30.7916V30.7945H27.9347ZM25.0802 27.9376V25.0831H27.9347V27.9376H25.0802ZM26.973 18.9168C26.4324 18.9168 25.9814 18.7346 25.62 18.37C25.2586 18.0038 25.0779 17.5513 25.0779 17.0123V9.38692C25.0779 8.84792 25.2609 8.39771 25.6271 8.03628C25.9932 7.67485 26.4458 7.49413 26.9848 7.49413H34.6102C35.1492 7.49413 35.5994 7.67721 35.9608 8.04335C36.3222 8.40792 36.5029 8.86049 36.5029 9.40106V17.0241C36.5029 17.5646 36.3199 18.0156 35.9537 18.3771C35.5892 18.7385 35.1366 18.9192 34.596 18.9192L26.973 18.9168ZM9.38401 36.5058C8.84501 36.5058 8.3948 36.3228 8.03337 35.9566C7.67194 35.5921 7.49123 35.1395 7.49123 34.5989V26.9759C7.49123 26.4354 7.6743 25.9851 8.04044 25.6253C8.40501 25.2638 8.85758 25.0831 9.39816 25.0831H17.0212C17.5617 25.0831 18.0127 25.2654 18.3742 25.63C18.7356 25.9961 18.9163 26.4487 18.9163 26.9877V34.6131C18.9163 35.1521 18.7332 35.6023 18.3671 35.9637C18.0009 36.3251 17.5484 36.5058 17.0094 36.5058H9.38637H9.38401ZM9.38401 18.9168C8.84501 18.9168 8.3948 18.7346 8.03337 18.37C7.67194 18.0038 7.49123 17.5513 7.49123 17.0123V9.38692C7.49123 8.84792 7.6743 8.39771 8.04044 8.03628C8.40501 7.67485 8.85758 7.49413 9.39816 7.49413H17.0212C17.5617 7.49413 18.0127 7.67721 18.3742 8.04335C18.7356 8.40792 18.9163 8.86049 18.9163 9.40106V17.0241C18.9163 17.5646 18.7332 18.0156 18.3671 18.3771C18.0009 18.7385 17.5484 18.9192 17.0094 18.9192H9.38637L9.38401 18.9168Z" fill="#004AFF"/>
</g>
<defs>
<clipPath id="clip0_140_464">
<rect width="42.4286" height="42.4286" fill="white" transform="translate(0.785156 0.785706)"/>
</clipPath>
</defs>
</svg>
