<svg width="20" height="20" viewBox="0 0 20 20" fill="none" xmlns="http://www.w3.org/2000/svg">
<g id="icon-park-outline:every-user">
<g id="Group">
<path id="Vector" d="M5.83333 14.1667C6.98393 14.1667 7.91667 13.2339 7.91667 12.0833C7.91667 10.9327 6.98393 10 5.83333 10C4.68274 10 3.75 10.9327 3.75 12.0833C3.75 13.2339 4.68274 14.1667 5.83333 14.1667Z" stroke="#9C9C9C" stroke-linecap="round" stroke-linejoin="round"/>
<path id="Vector_2" d="M14.1673 14.1667C15.3179 14.1667 16.2507 13.2339 16.2507 12.0833C16.2507 10.9327 15.3179 10 14.1673 10C13.0167 10 12.084 10.9327 12.084 12.0833C12.084 13.2339 13.0167 14.1667 14.1673 14.1667Z" stroke="#9C9C9C" stroke-linecap="round" stroke-linejoin="round"/>
<path id="Vector_3" d="M10.0003 5.83334C11.1509 5.83334 12.0837 4.9006 12.0837 3.75001C12.0837 2.59941 11.1509 1.66667 10.0003 1.66667C8.84973 1.66667 7.91699 2.59941 7.91699 3.75001C7.91699 4.9006 8.84973 5.83334 10.0003 5.83334Z" stroke="#9C9C9C" stroke-linecap="round" stroke-linejoin="round"/>
<path id="Vector_4" d="M1.66699 18.3333C1.66699 16.0321 3.53241 14.1667 5.83366 14.1667C8.13491 14.1667 10.0003 16.0321 10.0003 18.3333C10.0003 16.0321 11.8657 14.1667 14.167 14.1667C16.4682 14.1667 18.3337 16.0321 18.3337 18.3333M14.167 10C14.167 7.69876 12.3016 5.83334 10.0003 5.83334C7.69908 5.83334 5.83366 7.69876 5.83366 10" stroke="#9C9C9C" stroke-linecap="round" stroke-linejoin="round"/>
</g>
</g>
</svg>
