<svg width="20" height="20" viewBox="0 0 20 20" fill="none" xmlns="http://www.w3.org/2000/svg">
<g id="icon-park-outline:every-user">
<g id="Group">
<path id="Vector" d="M5.83333 14.1667C6.98393 14.1667 7.91667 13.2339 7.91667 12.0833C7.91667 10.9327 6.98393 10 5.83333 10C4.68274 10 3.75 10.9327 3.75 12.0833C3.75 13.2339 4.68274 14.1667 5.83333 14.1667Z" stroke="black" stroke-linecap="round" stroke-linejoin="round"/>
<path id="Vector_2" d="M14.1667 14.1667C15.3173 14.1667 16.25 13.2339 16.25 12.0833C16.25 10.9327 15.3173 10 14.1667 10C13.0161 10 12.0834 10.9327 12.0834 12.0833C12.0834 13.2339 13.0161 14.1667 14.1667 14.1667Z" stroke="black" stroke-linecap="round" stroke-linejoin="round"/>
<path id="Vector_3" d="M10 5.83329C11.1506 5.83329 12.0834 4.90055 12.0834 3.74996C12.0834 2.59937 11.1506 1.66663 10 1.66663C8.84943 1.66663 7.91669 2.59937 7.91669 3.74996C7.91669 4.90055 8.84943 5.83329 10 5.83329Z" stroke="black" stroke-linecap="round" stroke-linejoin="round"/>
<path id="Vector_4" d="M1.66669 18.3333C1.66669 16.032 3.5321 14.1666 5.83335 14.1666C8.1346 14.1666 10 16.032 10 18.3333C10 16.032 11.8654 14.1666 14.1667 14.1666C16.4679 14.1666 18.3334 16.032 18.3334 18.3333M14.1667 9.99992C14.1667 7.69867 12.3013 5.83325 10 5.83325C7.69877 5.83325 5.83335 7.69867 5.83335 9.99992" stroke="black" stroke-linecap="round" stroke-linejoin="round"/>
</g>
</g>
</svg>
